<svg width="18" height="18" xmlns="https://www.w3.org/2000/svg">
 <defs>
  <radialGradient spreadMethod="pad" id="svg_5">
   <stop offset="0" stop-color="#ffffff"/>
   <stop offset="1" stop-color="#000000"/>
  </radialGradient>
 </defs>
 <g>
  <title>background</title>
  <rect fill="none" id="canvas_background" height="402" width="582" y="-1" x="-1"/>
 </g>
 <g>
  <title>Layer 1</title>
  <g id="svg_1">
   <path id="svg_2" d="m-5.358809,7.148889c0.256,0.257 0.385,0.583 0.385,0.98c0,0.374 -0.129,0.688 -0.385,0.945c-0.258,0.257 -0.584,0.384 -0.98,0.384l-5.706,0l0,5.74c0,0.374 -0.129,0.695 -0.385,0.963c-0.257,0.269 -0.583,0.402 -0.98,0.402c-0.373,0 -0.694,-0.134 -0.963,-0.402c-0.269,-0.268 -0.402,-0.589 -0.402,-0.963l0,-5.74l-5.74,0c-0.374,0 -0.688,-0.127 -0.945,-0.384c-0.256,-0.257 -0.384,-0.572 -0.384,-0.945c0,-0.396 0.128,-0.723 0.385,-0.98c0.256,-0.256 0.571,-0.385 0.945,-0.385l5.74,0l0,-5.74c0,-0.396 0.134,-0.723 0.402,-0.98c0.269,-0.256 0.59,-0.385 0.963,-0.385c0.396,0 0.723,0.128 0.98,0.385c0.256,0.257 0.385,0.583 0.385,0.98l0,5.74l5.705,0c0.396,0 0.722,0.128 0.98,0.385z" fill="#ffffff"/>
  </g>
  <path fill-opacity="0" stroke="#ffffff" id="svg_3" d="m16.900118,14.728373l-4.30634,-4.29487c0.580141,-0.954081 0.92037,-2.070289 0.920974,-3.26726c-0.000604,-3.491466 -2.83544,-6.319354 -6.334417,-6.320559c-3.499581,0.001205 -6.335626,2.829094 -6.335626,6.319956c0,3.489055 2.836045,6.316943 6.335626,6.316943c1.200772,0 2.319961,-0.339322 3.276589,-0.917919l4.307549,4.295473l2.135645,-2.131765zm-13.638758,-7.562733c0.003626,-2.158887 1.754323,-3.904318 3.918371,-3.90914c2.162839,0.004822 3.914745,1.750253 3.918371,3.90914c-0.00423,2.157681 -1.755532,3.903113 -3.918371,3.907934c-2.164048,-0.004822 -3.914745,-1.750253 -3.918371,-3.907934z" stroke-width="1.5" fill="url(#svg_5)"/>
 </g>
</svg>